/* XPM */
static char *_10c707e23f04437b628753bdabd6f6ckTb2BtQZ1f7IuqNa[] = {
/* columns rows colors chars-per-pixel */
"64 64 23 1 ",
"  c None",
". c #26211D",
"X c #502417",
"o c #5E351E",
"O c #6B3633",
"+ c #3C5014",
"@ c #41671F",
"# c #734630",
"$ c #427D76",
"% c #7F7D7C",
"& c #AC302A",
"* c #C74D39",
"= c #854440",
"- c #855B40",
"; c #AE5F5B",
": c #DB764F",
"> c #CD906D",
", c #A7958A",
"< c #A7A49F",
"1 c #B2AD93",
"2 c #F0C090",
"3 c #D2C6BF",
"4 c #EDE4CC",
/* pixels */
"                                                                ",
"                                                                ",
"                                                                ",
"                                                                ",
"                                                                ",
"                                                                ",
"                                                                ",
"                                                                ",
"                                                                ",
"                                                                ",
"                                                                ",
"                                                                ",
"                                                                ",
"                                                                ",
"                                                                ",
"                                                                ",
"                                                                ",
"                                                                ",
"                                                                ",
"                                                                ",
"                                                                ",
"                                                                ",
"                                                                ",
"                                                                ",
"                                  ...                           ",
"                           . .....:::.                          ",
"                         ..*.:::::***.                          ",
"                        .-..:********.                          ",
"                       . .-.*******&&.                          ",
"                      .-.-#.&**&&&&>.                           ",
"                     <<.-##.&*&>>>>>.                           ",
"                    <   ...#2&>22222.                           ",
"                    <   %  ..&>$22$2.                           ",
"                     <<<    .;=22>22.                           ",
"                           ..=+@+4+@2.                          ",
"                          .O.=@@14+@2.                          ",
"                           ..=@+XXo+.   33                      ",
"                            .@22..oo.   ,3                      ",
"                             ...   .. ,                         ",
"                                                                ",
"                                                                ",
"                                                                ",
"                                                                ",
"                                                                ",
"                                                                ",
"                                                                ",
"                                                                ",
"                                                                ",
"                                                                ",
"                                                                ",
"                                                                ",
"                                                                ",
"                                                                ",
"                                                                ",
"                                                                ",
"                                                                ",
"                                                                ",
"                                                                ",
"                                                                ",
"                                                                ",
"                                                                ",
"                                                                ",
"                                                                ",
"                                                                "
};
